<?xml version="1.0" encoding="UTF-8" standalone="no"?><!DOCTYPE svg PUBLIC "-//W3C//DTD SVG 1.1//EN" "http://www.w3.org/Graphics/SVG/1.1/DTD/svg11.dtd"><svg width="100%" height="100%" viewBox="0 0 470 546" version="1.1" xmlns="http://www.w3.org/2000/svg" xmlns:xlink="http://www.w3.org/1999/xlink" xml:space="preserve" xmlns:serif="http://www.serif.com/" style="fill-rule:evenodd;clip-rule:evenodd;stroke-linejoin:round;stroke-miterlimit:2;"><path id="Alarm" d="M275.318,502.076c-1.305,24.387 -19.573,43.036 -41.755,43.036c-22.181,0 -40.449,-20.083 -41.754,-43.036l83.509,0Zm178.761,-57.38c-53.498,-35.862 -88.728,-88.939 -88.728,-172.14l-1.305,-100.416c-6.524,-60.249 -49.583,-107.587 -103.081,-113.325l0,-30.125c0,-15.779 -11.744,-28.69 -26.097,-28.69c-14.353,0 -26.096,12.911 -26.096,28.69l0,30.125c-54.803,7.172 -97.862,54.511 -103.081,113.325l-1.305,100.416c0,83.201 -36.535,137.712 -90.033,173.575c-7.829,2.869 -14.353,10.041 -14.353,20.083c0,11.476 9.134,21.517 19.572,21.517l430.592,0c10.439,0 19.573,-10.041 19.573,-21.517c-1.305,-11.476 -7.829,-20.083 -15.658,-21.518Zm-30.011,12.911c-54.803,-43.036 -87.423,-113.326 -87.423,-186.486l0,-96.112c-5.22,-45.904 -39.145,-83.201 -80.9,-88.939l-45.668,0c-41.755,5.738 -75.68,43.035 -80.899,88.939l0,97.547c0,72.352 -31.905,141.899 -85.618,185.051l-1.806,0l0,1.434c0.605,-0.475 1.207,-0.953 1.806,-1.434l380.508,0Z" style="fill:#fff;"/></svg>